<?xml version="1.0" encoding="UTF-8"?>
<svg id="ai_tools" data-name="ai tools" xmlns="http://www.w3.org/2000/svg" viewBox="0 0 24 24">
  <defs>
    <style>
      .cls-1 {
        fill: #000;
        stroke-width: 0px;
      }
    </style>
  </defs>
  <path class="cls-1" d="M21.13,7.52c-.67-.19-1.29-.49-1.82-.91-1.16-.91-1.64-2.11-1.83-2.74-.12-.43-.84-.43-.96,0-.18.64-.67,1.84-1.83,2.74-.54.42-1.15.73-1.82.91-.22.06-.37.26-.37.48s.15.42.37.48c.67.19,1.29.49,1.82.91,1.16.91,1.64,2.11,1.83,2.74.06.21.26.36.48.36s.42-.15.48-.36c.18-.64.67-1.84,1.83-2.74.54-.42,1.15-.73,1.82-.91.22-.06.37-.26.37-.48s-.15-.42-.37-.48ZM18.69,8.61c-.81.64-1.35,1.39-1.69,2.06-.35-.67-.88-1.42-1.69-2.06-.3-.23-.61-.43-.94-.61.33-.17.65-.38.94-.61.81-.64,1.35-1.39,1.69-2.06.35.67.88,1.42,1.69,2.06.3.23.61.43.94.61-.33.17-.65.38-.94.61Z"/>
  <path class="cls-1" d="M17,13.5c-.28,0-.5.22-.5.5v4c0,1.38-1.12,2.5-2.5,2.5H6c-1.38,0-2.5-1.12-2.5-2.5v-7c0-1.38,1.12-2.5,2.5-2.5h5c.28,0,.5-.22.5-.5s-.22-.5-.5-.5h-5c-1.93,0-3.5,1.57-3.5,3.5v7c0,1.93,1.57,3.5,3.5,3.5h8c1.93,0,3.5-1.57,3.5-3.5v-4c0-.28-.22-.5-.5-.5Z"/>
  <path class="cls-1" d="M7.54,11.81l-2,5c-.1.26.02.55.28.65.25.1.55-.02.65-.28l.67-1.69h1.72l.67,1.69c.08.2.27.31.46.31.06,0,.12-.01.19-.04.26-.1.38-.39.28-.65l-2-5c-.15-.38-.78-.38-.93,0ZM7.54,14.5l.46-1.15.46,1.15h-.92Z"/>
  <path class="cls-1" d="M12,12.5h.5v4h-.5c-.28,0-.5.22-.5.5s.22.5.5.5h2c.28,0,.5-.22.5-.5s-.22-.5-.5-.5h-.5v-4h.5c.28,0,.5-.22.5-.5s-.22-.5-.5-.5h-2c-.28,0-.5.22-.5.5s.22.5.5.5Z"/>
</svg>